<svg width="200" height="150" xmlns="http://www.w3.org/2000/svg">
  <defs>
    <linearGradient id="cloudGradient" x1="0%" y1="0%" x2="100%" y2="100%">
      <stop offset="0%" style="stop-color:#6B7280;stop-opacity:1" />
      <stop offset="100%" style="stop-color:#4B5563;stop-opacity:1" />
    </linearGradient>
    <linearGradient id="dataGradient" x1="0%" y1="0%" x2="100%" y2="100%">
      <stop offset="0%" style="stop-color:#10B981;stop-opacity:1" />
      <stop offset="100%" style="stop-color:#059669;stop-opacity:1" />
    </linearGradient>
  </defs>
  
  <!-- Cloud Infrastructure -->
  <ellipse cx="100" cy="60" rx="80" ry="25" fill="url(#cloudGradient)" opacity="0.8"/>
  <ellipse cx="70" cy="45" rx="35" ry="15" fill="url(#cloudGradient)"/>
  <ellipse cx="130" cy="45" rx="35" ry="15" fill="url(#cloudGradient)"/>
  <ellipse cx="100" cy="35" rx="25" ry="12" fill="url(#cloudGradient)"/>
  
  <!-- Data Flow Lines -->
  <path d="M 50 90 Q 100 70 150 90" stroke="url(#dataGradient)" stroke-width="3" fill="none" opacity="0.7">
    <animate attributeName="stroke-dasharray" values="0,100;20,80;0,100" dur="3s" repeatCount="indefinite"/>
  </path>
  <path d="M 30 110 Q 100 90 170 110" stroke="url(#dataGradient)" stroke-width="2" fill="none" opacity="0.5">
    <animate attributeName="stroke-dasharray" values="0,100;15,85;0,100" dur="4s" repeatCount="indefinite"/>
  </path>
  
  <!-- Server Icons -->
  <rect x="40" y="100" width="20" height="30" rx="3" fill="#4B5563"/>
  <rect x="90" y="100" width="20" height="30" rx="3" fill="#4B5563"/>
  <rect x="140" y="100" width="20" height="30" rx="3" fill="#4B5563"/>
  
  <!-- Server Details -->
  <circle cx="50" cy="110" r="2" fill="#10B981"/>
  <circle cx="100" cy="110" r="2" fill="#10B981"/>
  <circle cx="150" cy="110" r="2" fill="#10B981"/>
  
  <circle cx="50" cy="120" r="1.5" fill="#6B7280"/>
  <circle cx="100" cy="120" r="1.5" fill="#6B7280"/>
  <circle cx="150" cy="120" r="1.5" fill="#6B7280"/>
</svg>
